<?xml version="1.0" encoding="utf-8"?>
<!-- Generator: Adobe Illustrator 16.0.0, SVG Export Plug-In . SVG Version: 6.00 Build 0)  -->
<!DOCTYPE svg PUBLIC "-//W3C//DTD SVG 1.1//EN" "http://www.w3.org/Graphics/SVG/1.1/DTD/svg11.dtd">
<svg version="1.1" id="レイヤー_1" xmlns="http://www.w3.org/2000/svg" xmlns:xlink="http://www.w3.org/1999/xlink" x="0px"
	 y="0px" width="180.333px" height="127.494px" viewBox="0 0 180.333 127.494" enable-background="new 0 0 180.333 127.494"
	 xml:space="preserve">
<path fill="#494645" d="M466.85,423.693c-3.055,0-5.54-2.484-5.54-5.541V325.85c0-3.055,2.485-5.54,5.54-5.54h4.394
	c0.161,0.001,0.265,0.102,0.265,0.155c0,0.003-0.005,1.104-0.005,1.129c0,1.409,1.247,2.558,2.776,2.558h22.664
	c1.531,0,2.777-1.148,2.777-2.558c0-0.025-0.006-1.134-0.006-1.134c0-0.049,0.106-0.149,0.27-0.15h3.148
	c3.057,0,5.539,2.485,5.539,5.54v92.302c0,3.057-2.482,5.541-5.539,5.541H466.85z"/>
<g>
	
		<image overflow="visible" width="225" height="225" id="TywRm2_1_" xlink:href="63BB96F862DB47F.jpg"  transform="matrix(1 0 0 1 372.4165 259.8774)">
	</image>
</g>
<g>
	
		<image overflow="visible" width="225" height="225" id="vJxfwe_1_" xlink:href="63BB96F862DB47D.jpg"  transform="matrix(1 0 0 1 61.9165 243.8774)">
	</image>
</g>
<path fill="#F39800" d="M90.167,49.835c-0.783,0-1.417-0.635-1.417-1.417v-47C88.749,0.635,89.384,0,90.167,0
	s1.417,0.635,1.417,1.417v47C91.584,49.2,90.949,49.835,90.167,49.835z"/>
<path fill="#F39800" d="M69.293,55.429c-0.49,0-0.966-0.254-1.229-0.709l-23.5-40.704c-0.391-0.678-0.159-1.544,0.519-1.936
	c0.679-0.391,1.545-0.159,1.936,0.519l23.5,40.704c0.391,0.678,0.159,1.544-0.519,1.936C69.777,55.368,69.533,55.429,69.293,55.429z
	"/>
<path fill="#F39800" d="M54.009,70.71c-0.24,0-0.484-0.061-0.707-0.19l-40.703-23.5c-0.678-0.392-0.91-1.258-0.519-1.936
	c0.392-0.678,1.258-0.912,1.936-0.519l40.703,23.5c0.678,0.392,0.91,1.258,0.519,1.936C54.975,70.457,54.499,70.71,54.009,70.71z"/>
<path fill="#F39800" d="M48.417,91.585L48.417,91.585l-47,0C0.635,91.585,0,90.95,0,90.167s0.635-1.417,1.417-1.417l0,0l47,0
	c0.783,0,1.417,0.635,1.417,1.417S49.2,91.585,48.417,91.585z"/>
<path fill="#F39800" d="M178.916,91.585L178.916,91.585l-46.999,0c-0.783,0-1.417-0.635-1.417-1.417s0.635-1.417,1.417-1.417l0,0
	l46.999,0c0.783,0,1.417,0.635,1.417,1.417S179.698,91.585,178.916,91.585z"/>
<path fill="#F39800" d="M126.325,70.71c-0.49,0-0.966-0.254-1.229-0.709c-0.391-0.678-0.159-1.544,0.519-1.936l40.702-23.499
	c0.679-0.392,1.545-0.158,1.936,0.519c0.391,0.678,0.159,1.544-0.519,1.936L127.032,70.52
	C126.809,70.649,126.565,70.71,126.325,70.71z"/>
<path fill="#F39800" d="M111.041,55.428c-0.24,0-0.484-0.061-0.707-0.19c-0.678-0.392-0.91-1.258-0.519-1.936L133.314,12.6
	c0.392-0.677,1.258-0.91,1.936-0.519c0.678,0.392,0.91,1.258,0.519,1.936L112.27,54.719
	C112.007,55.174,111.531,55.428,111.041,55.428z"/>
<path fill="#F39800" d="M74.495,34.233c-0.654,0-1.242-0.455-1.384-1.12l-2.434-11.35c-0.164-0.766,0.323-1.519,1.088-1.683
	c0.765-0.165,1.519,0.323,1.683,1.088l2.434,11.35c0.164,0.766-0.323,1.519-1.088,1.683C74.693,34.223,74.593,34.233,74.495,34.233z
	"/>
<path fill="#F39800" d="M47.353,49.601c-0.416,0-0.828-0.182-1.108-0.532l-6.646-8.309c-0.489-0.611-0.39-1.503,0.222-1.992
	c0.611-0.488,1.503-0.389,1.992,0.222l6.646,8.309c0.489,0.611,0.39,1.503-0.222,1.992C47.976,49.499,47.663,49.601,47.353,49.601z"
	/>
<path fill="#F39800" d="M31.681,76.218c-0.149,0-0.301-0.023-0.45-0.074l-9.08-3.041c-0.742-0.249-1.143-1.052-0.894-1.794
	c0.248-0.742,1.049-1.146,1.794-0.894l9.08,3.041c0.742,0.249,1.143,1.052,0.894,1.794C32.826,75.843,32.273,76.218,31.681,76.218z"
	/>
<path fill="#F39800" d="M148.654,76.218c-0.593,0-1.146-0.375-1.344-0.967c-0.249-0.742,0.151-1.545,0.894-1.794l9.079-3.041
	c0.743-0.251,1.546,0.152,1.794,0.894c0.249,0.742-0.151,1.545-0.894,1.794l-9.079,3.041
	C148.955,76.194,148.803,76.218,148.654,76.218z"/>
<path fill="#F39800" d="M132.982,49.601c-0.311,0-0.623-0.102-0.884-0.311c-0.611-0.489-0.71-1.381-0.222-1.992l6.646-8.308
	c0.489-0.611,1.381-0.711,1.992-0.222s0.71,1.381,0.222,1.992l-6.646,8.308C133.81,49.418,133.398,49.601,132.982,49.601z"/>
<path fill="#F39800" d="M105.84,34.233c-0.099,0-0.198-0.01-0.298-0.032c-0.766-0.164-1.253-0.917-1.089-1.683l2.433-11.349
	c0.164-0.766,0.918-1.254,1.683-1.089c0.766,0.164,1.253,0.917,1.089,1.683l-2.433,11.349
	C107.082,33.778,106.494,34.233,105.84,34.233z"/>
<g>
	
		<path fill="none" stroke="#F39800" stroke-width="5.6693" stroke-linecap="round" stroke-linejoin="round" stroke-miterlimit="10" d="
		M32.221,100.089c37.998,0,75.996,0,113.994,0"/>
</g>
<g>
	
		<path fill="none" stroke="#F39800" stroke-width="5.6693" stroke-linecap="round" stroke-linejoin="round" stroke-miterlimit="10" d="
		M51.823,112.374c24.931,0,49.861,0,74.792,0"/>
</g>
<g>
	
		<path fill="none" stroke="#F39800" stroke-width="5.6693" stroke-linecap="round" stroke-linejoin="round" stroke-miterlimit="10" d="
		M64.684,124.659c16.357,0,32.714,0,49.071,0"/>
</g>
<g>
	<path fill="none" stroke="#F39800" stroke-width="5.6693" stroke-miterlimit="10" d="M-157.681,38.458
		c-0.032,6.284-5.915,11.377-12.682,11.377c-7.052,0-14.023-5.094-12.682-11.377c1.368-6.284-5.374-11.377-12.682-11.377
		c-6.763,0-10.878,5.094-12.682,11.377c-1.805,6.284-5.919,11.377-12.682,11.377c-7.308,0-14.049-5.094-12.682-11.377
		c1.342-6.284-5.629-11.377-12.682-11.377c-6.766,0-12.651,5.094-12.682,11.377"/>
</g>
<g>
	<defs>
		<rect id="SVGID_1_" x="31.759" y="51.532" width="114.916" height="39.385"/>
	</defs>
	<clipPath id="SVGID_2_">
		<use xlink:href="#SVGID_1_"  overflow="visible"/>
	</clipPath>
	<circle clip-path="url(#SVGID_2_)" fill="#F39800" cx="90.167" cy="90.917" r="30.5"/>
</g>
</svg>
