<?xml version="1.0" encoding="utf-8"?>
<!-- Generator: Adobe Illustrator 16.0.0, SVG Export Plug-In . SVG Version: 6.00 Build 0)  -->
<!DOCTYPE svg PUBLIC "-//W3C//DTD SVG 1.1//EN" "http://www.w3.org/Graphics/SVG/1.1/DTD/svg11.dtd">
<svg version="1.1" id="レイヤー_1" xmlns="http://www.w3.org/2000/svg" xmlns:xlink="http://www.w3.org/1999/xlink" x="0px"
	 y="0px" width="158.181px" height="92.939px" viewBox="0 0 158.181 92.939" enable-background="new 0 0 158.181 92.939"
	 xml:space="preserve">
<g>
	<g>
		<path fill="#FFFFFF" d="M2.239,43.205c-5.388,16.725-0.779,34.76,10.874,49.734C5.749,81.812,3.13,68.975,6.992,56.987
			c3.43-10.647,9.882-19.603,20.483-25.248l-8.39-13.098C11.081,25.515,5.234,33.91,2.239,43.205z"/>
		<path fill="#FFFFFF" d="M91.93,3.259C62.193-4,43.683,1.43,25.174,13.979l8.948,14.385c12.173-4.207,20.782-4.38,34.569,1.366
			c22.368,9.322,30.147,26.787,29.94,49.07l59.539,10.541C158.17,89.341,160.535,20.009,91.93,3.259z"/>
	</g>
	<path fill="#FFFFFF" d="M58.723,84.13c2.045,2.779,5.956,3.375,8.734,1.331c2.78-2.047,3.376-5.957,1.33-8.736
		c-1.627-2.213-4.438-3.039-6.918-2.253L14.722,3.747L13.47,4.669l45.025,72.389C57.14,79.171,57.146,81.988,58.723,84.13z"/>
</g>
</svg>
