<?xml version="1.0" encoding="utf-8"?>
<!-- Generator: Adobe Illustrator 16.0.0, SVG Export Plug-In . SVG Version: 6.00 Build 0)  -->
<!DOCTYPE svg PUBLIC "-//W3C//DTD SVG 1.1//EN" "http://www.w3.org/Graphics/SVG/1.1/DTD/svg11.dtd">
<svg version="1.1" id="レイヤー_1" xmlns="http://www.w3.org/2000/svg" xmlns:xlink="http://www.w3.org/1999/xlink" x="0px"
	 y="0px" width="166.684px" height="95.125px" viewBox="0 0 166.684 95.125" enable-background="new 0 0 166.684 95.125"
	 xml:space="preserve">
<g>
	<path fill="#FFFFFF" d="M91.928,3.26C44.271-8.376,12.104,12.583,2.239,43.205C-3.148,59.93,1.46,77.965,13.113,92.939
		C5.749,81.812,3.13,68.976,6.992,56.987c7.822-24.28,31.685-39.766,61.699-27.257c22.366,9.322,30.146,26.787,29.938,49.07
		l59.54,10.541C158.169,89.342,160.533,20.009,91.928,3.26z"/>
	<path fill="#FFFFFF" d="M64.302,73.082c-3.398-0.599-6.639,1.67-7.238,5.067c-0.599,3.398,1.669,6.64,5.068,7.238
		c2.705,0.478,5.309-0.864,6.562-3.146l89.206,12.883l0.27-1.531L69.35,78.042C68.871,75.577,66.923,73.544,64.302,73.082z"/>
</g>
</svg>
